<svg width="250" height="400" viewBox="0 0 250 400" fill="none" xmlns="http://www.w3.org/2000/svg">
<rect width="250" height="400" rx="25" fill="#FF0000"/>
<rect x="10" y="10" width="230" height="360" rx="15" fill="white"/>
<ellipse cx="70" cy="176.5" rx="20" ry="20.5" fill="#FF0000"/>
<circle cx="125" cy="231" r="20" fill="#FF0000"/>
<circle cx="180" cy="231" r="20" fill="#FF0000"/>
<circle cx="70" cy="286" r="20" fill="#FF0000"/>
<circle cx="125" cy="286" r="20" fill="#FF0000"/>
<circle cx="180" cy="286" r="20" fill="#FF0000"/>
<circle cx="125" cy="341" r="20" fill="#FF0000"/>
<circle cx="180" cy="340" r="20" fill="#FF0000"/>
<circle cx="70" cy="340" r="20" fill="#00FF38"/>
<circle cx="70" cy="231" r="20" fill="#FF0000"/>
<ellipse cx="180" cy="176.5" rx="20" ry="20.5" fill="#FF0000"/>
<ellipse cx="125" cy="176.5" rx="20" ry="20.5" fill="#FF0000"/>
<path d="M28.5059 112.085H33.6602V114.307H28.5059V120.146H26.1445V114.307H20.9902V112.085H26.1445V106.689H28.5059V112.085ZM46.2031 115.792H48.7676V117.709H46.2031V122H43.8418V117.709H35.4248V116.325L43.7021 103.516H46.2031V115.792ZM38.0908 115.792H43.8418V106.728L43.5625 107.235L38.0908 115.792ZM60.8027 115.792H63.3672V117.709H60.8027V122H58.4414V117.709H50.0244V116.325L58.3018 103.516H60.8027V115.792ZM52.6904 115.792H58.4414V106.728L58.1621 107.235L52.6904 115.792ZM73.2061 122H70.8447V106.347L66.1094 108.086V105.953L72.8379 103.427H73.2061V122ZM92.1982 122H80.0869V120.312L86.4854 113.202C87.4333 112.127 88.085 111.256 88.4404 110.587C88.8044 109.91 88.9863 109.212 88.9863 108.492C88.9863 107.527 88.6943 106.736 88.1104 106.118C87.5264 105.5 86.7477 105.191 85.7744 105.191C84.6064 105.191 83.6966 105.526 83.0449 106.194C82.4017 106.854 82.0801 107.777 82.0801 108.962H79.7314C79.7314 107.261 80.2773 105.885 81.3691 104.836C82.4694 103.786 83.9378 103.262 85.7744 103.262C87.4925 103.262 88.8509 103.715 89.8496 104.62C90.8483 105.517 91.3477 106.715 91.3477 108.213C91.3477 110.033 90.1882 112.199 87.8691 114.713L82.918 120.083H92.1982V122ZM98.1016 111.615H99.8662C100.975 111.598 101.847 111.306 102.481 110.739C103.116 110.172 103.434 109.406 103.434 108.441C103.434 106.275 102.354 105.191 100.196 105.191C99.1807 105.191 98.3682 105.483 97.7588 106.067C97.1579 106.643 96.8574 107.409 96.8574 108.365H94.5088C94.5088 106.901 95.042 105.687 96.1084 104.722C97.1833 103.748 98.5459 103.262 100.196 103.262C101.94 103.262 103.307 103.723 104.297 104.646C105.287 105.568 105.782 106.85 105.782 108.492C105.782 109.296 105.52 110.075 104.995 110.828C104.479 111.581 103.772 112.144 102.875 112.517C103.891 112.838 104.674 113.371 105.224 114.116C105.782 114.861 106.062 115.771 106.062 116.846C106.062 118.505 105.52 119.821 104.437 120.794C103.353 121.767 101.944 122.254 100.209 122.254C98.474 122.254 97.0605 121.784 95.9688 120.845C94.8854 119.905 94.3438 118.665 94.3438 117.125H96.7051C96.7051 118.098 97.0225 118.877 97.6572 119.461C98.292 120.045 99.1426 120.337 100.209 120.337C101.343 120.337 102.211 120.041 102.812 119.448C103.412 118.856 103.713 118.005 103.713 116.896C103.713 115.822 103.383 114.996 102.723 114.421C102.062 113.845 101.11 113.549 99.8662 113.532H98.1016V111.615ZM119.201 115.792H121.766V117.709H119.201V122H116.84V117.709H108.423V116.325L116.7 103.516H119.201V115.792ZM111.089 115.792H116.84V106.728L116.561 107.235L111.089 115.792ZM124.965 112.732L125.904 103.516H135.375V105.687H127.897L127.339 110.727C128.244 110.193 129.273 109.927 130.424 109.927C132.108 109.927 133.445 110.485 134.436 111.603C135.426 112.711 135.921 114.214 135.921 116.109C135.921 118.014 135.405 119.516 134.372 120.616C133.348 121.708 131.913 122.254 130.068 122.254C128.435 122.254 127.102 121.801 126.069 120.896C125.037 119.99 124.449 118.737 124.305 117.138H126.526C126.67 118.196 127.047 118.995 127.656 119.537C128.266 120.07 129.07 120.337 130.068 120.337C131.16 120.337 132.015 119.965 132.633 119.22C133.259 118.475 133.572 117.447 133.572 116.135C133.572 114.899 133.234 113.909 132.557 113.164C131.888 112.411 130.995 112.034 129.878 112.034C128.854 112.034 128.05 112.258 127.466 112.707L126.844 113.215L124.965 112.732ZM147.702 103.503V105.496H147.271C145.442 105.53 143.987 106.072 142.903 107.121C141.82 108.171 141.194 109.647 141.024 111.552C141.998 110.435 143.326 109.876 145.011 109.876C146.619 109.876 147.901 110.443 148.857 111.577C149.822 112.711 150.305 114.175 150.305 115.97C150.305 117.874 149.784 119.397 148.743 120.54C147.711 121.683 146.323 122.254 144.579 122.254C142.81 122.254 141.376 121.577 140.275 120.223C139.175 118.86 138.625 117.108 138.625 114.967V114.065C138.625 110.663 139.349 108.065 140.796 106.271C142.252 104.468 144.414 103.545 147.283 103.503H147.702ZM144.617 111.831C143.813 111.831 143.073 112.072 142.396 112.555C141.718 113.037 141.249 113.642 140.986 114.37V115.233C140.986 116.757 141.329 117.984 142.015 118.915C142.7 119.846 143.555 120.312 144.579 120.312C145.637 120.312 146.466 119.922 147.067 119.144C147.677 118.365 147.981 117.345 147.981 116.084C147.981 114.814 147.673 113.79 147.055 113.012C146.445 112.225 145.633 111.831 144.617 111.831ZM165.019 104.836L157.363 122H154.9L162.53 105.445H152.526V103.516H165.019V104.836ZM178.895 108.34C178.895 109.262 178.649 110.083 178.158 110.803C177.676 111.522 177.02 112.085 176.19 112.491C177.155 112.906 177.917 113.511 178.476 114.307C179.043 115.102 179.326 116.004 179.326 117.011C179.326 118.61 178.785 119.884 177.701 120.832C176.626 121.78 175.209 122.254 173.448 122.254C171.671 122.254 170.245 121.78 169.17 120.832C168.104 119.876 167.57 118.602 167.57 117.011C167.57 116.012 167.841 115.111 168.383 114.307C168.933 113.503 169.69 112.893 170.655 112.479C169.834 112.072 169.187 111.509 168.713 110.79C168.239 110.071 168.002 109.254 168.002 108.34C168.002 106.783 168.501 105.547 169.5 104.633C170.499 103.719 171.815 103.262 173.448 103.262C175.073 103.262 176.385 103.719 177.384 104.633C178.391 105.547 178.895 106.783 178.895 108.34ZM176.978 116.96C176.978 115.927 176.647 115.085 175.987 114.434C175.336 113.782 174.481 113.456 173.423 113.456C172.365 113.456 171.514 113.778 170.871 114.421C170.236 115.064 169.919 115.91 169.919 116.96C169.919 118.009 170.228 118.835 170.846 119.436C171.472 120.036 172.34 120.337 173.448 120.337C174.549 120.337 175.412 120.036 176.038 119.436C176.664 118.826 176.978 118.001 176.978 116.96ZM173.448 105.191C172.526 105.191 171.777 105.479 171.201 106.055C170.634 106.622 170.351 107.396 170.351 108.378C170.351 109.317 170.63 110.079 171.188 110.663C171.756 111.239 172.509 111.526 173.448 111.526C174.388 111.526 175.137 111.239 175.695 110.663C176.262 110.079 176.546 109.317 176.546 108.378C176.546 107.438 176.254 106.673 175.67 106.08C175.086 105.488 174.345 105.191 173.448 105.191ZM191.285 113.875C190.794 114.459 190.206 114.929 189.521 115.284C188.843 115.64 188.099 115.817 187.286 115.817C186.22 115.817 185.289 115.555 184.493 115.03C183.706 114.506 183.097 113.769 182.665 112.821C182.233 111.865 182.018 110.811 182.018 109.66C182.018 108.424 182.25 107.312 182.716 106.321C183.19 105.331 183.858 104.574 184.722 104.049C185.585 103.524 186.592 103.262 187.743 103.262C189.571 103.262 191.01 103.947 192.06 105.318C193.118 106.681 193.646 108.543 193.646 110.904V111.59C193.646 115.187 192.936 117.815 191.514 119.474C190.092 121.124 187.946 121.97 185.077 122.013H184.62V120.032H185.115C187.053 119.998 188.543 119.495 189.584 118.521C190.625 117.54 191.192 115.991 191.285 113.875ZM187.667 113.875C188.454 113.875 189.178 113.634 189.838 113.151C190.507 112.669 190.993 112.072 191.298 111.361V110.422C191.298 108.882 190.964 107.629 190.295 106.664C189.626 105.699 188.78 105.217 187.756 105.217C186.723 105.217 185.894 105.615 185.268 106.41C184.641 107.197 184.328 108.238 184.328 109.533C184.328 110.794 184.629 111.835 185.229 112.656C185.839 113.469 186.651 113.875 187.667 113.875ZM208.475 114.116C208.475 116.867 208.005 118.911 207.065 120.248C206.126 121.585 204.658 122.254 202.66 122.254C200.688 122.254 199.228 121.602 198.28 120.299C197.332 118.987 196.841 117.032 196.808 114.434V111.298C196.808 108.581 197.277 106.562 198.217 105.242C199.156 103.922 200.629 103.262 202.635 103.262C204.624 103.262 206.088 103.901 207.027 105.179C207.967 106.448 208.449 108.412 208.475 111.069V114.116ZM206.126 110.904C206.126 108.915 205.847 107.468 205.288 106.562C204.729 105.648 203.845 105.191 202.635 105.191C201.433 105.191 200.557 105.644 200.007 106.55C199.457 107.455 199.173 108.848 199.156 110.727V114.484C199.156 116.482 199.444 117.959 200.02 118.915C200.604 119.863 201.484 120.337 202.66 120.337C203.82 120.337 204.679 119.888 205.237 118.991C205.804 118.094 206.101 116.681 206.126 114.751V110.904ZM219.202 122H216.841V106.347L212.105 108.086V105.953L218.834 103.427H219.202V122Z" fill="#FF0000"/>
<rect x="165" y="15" width="70" height="20" rx="10" fill="#FF0000"/>
<circle cx="217.5" cy="24.5" r="7.5" fill="white"/>
<path d="M70.4072 183H68.7725V172.163L65.4941 173.367V171.891L70.1523 170.142H70.4072V183Z" fill="white"/>
<path d="M128.448 183H120.063V181.831L124.493 176.909C125.149 176.165 125.601 175.562 125.847 175.099C126.099 174.63 126.225 174.146 126.225 173.648C126.225 172.98 126.022 172.433 125.618 172.005C125.214 171.577 124.675 171.363 124.001 171.363C123.192 171.363 122.562 171.595 122.111 172.058C121.666 172.515 121.443 173.153 121.443 173.974H119.817C119.817 172.796 120.195 171.844 120.951 171.117C121.713 170.391 122.729 170.027 124.001 170.027C125.19 170.027 126.131 170.341 126.822 170.968C127.514 171.589 127.859 172.418 127.859 173.455C127.859 174.715 127.057 176.215 125.451 177.955L122.023 181.673H128.448V183Z" fill="white"/>
<path d="M177.428 175.811H178.649C179.417 175.799 180.021 175.597 180.46 175.204C180.899 174.812 181.119 174.281 181.119 173.613C181.119 172.113 180.372 171.363 178.878 171.363C178.175 171.363 177.612 171.565 177.19 171.97C176.774 172.368 176.566 172.898 176.566 173.561H174.94C174.94 172.547 175.31 171.706 176.048 171.038C176.792 170.364 177.735 170.027 178.878 170.027C180.085 170.027 181.031 170.347 181.717 170.985C182.402 171.624 182.745 172.512 182.745 173.648C182.745 174.205 182.563 174.744 182.2 175.266C181.843 175.787 181.354 176.177 180.732 176.435C181.436 176.657 181.978 177.026 182.358 177.542C182.745 178.058 182.938 178.688 182.938 179.432C182.938 180.58 182.563 181.491 181.813 182.165C181.063 182.839 180.088 183.176 178.887 183.176C177.686 183.176 176.707 182.851 175.951 182.2C175.201 181.55 174.826 180.691 174.826 179.625H176.461C176.461 180.299 176.681 180.838 177.12 181.242C177.56 181.646 178.148 181.849 178.887 181.849C179.672 181.849 180.272 181.644 180.688 181.233C181.104 180.823 181.312 180.234 181.312 179.467C181.312 178.723 181.084 178.151 180.627 177.753C180.17 177.354 179.511 177.149 178.649 177.138H177.428V175.811Z" fill="white"/>
<path d="M181.444 225.194V226.574H181.146C179.88 226.598 178.872 226.973 178.122 227.699C177.372 228.426 176.938 229.448 176.821 230.767C177.495 229.993 178.415 229.606 179.581 229.606C180.694 229.606 181.582 229.999 182.244 230.784C182.912 231.569 183.246 232.583 183.246 233.825C183.246 235.144 182.886 236.198 182.165 236.989C181.45 237.78 180.489 238.176 179.282 238.176C178.058 238.176 177.064 237.707 176.303 236.77C175.541 235.826 175.16 234.613 175.16 233.131V232.507C175.16 230.151 175.661 228.353 176.663 227.11C177.671 225.862 179.168 225.224 181.154 225.194H181.444ZM179.309 230.96C178.752 230.96 178.239 231.127 177.771 231.461C177.302 231.795 176.977 232.214 176.795 232.718V233.315C176.795 234.37 177.032 235.22 177.507 235.864C177.981 236.509 178.573 236.831 179.282 236.831C180.015 236.831 180.589 236.562 181.005 236.022C181.427 235.483 181.638 234.777 181.638 233.904C181.638 233.025 181.424 232.316 180.996 231.777C180.574 231.232 180.012 230.96 179.309 230.96Z" fill="white"/>
<path d="M120.811 231.584L121.461 225.203H128.018V226.706H122.841L122.454 230.195C123.081 229.826 123.793 229.642 124.59 229.642C125.756 229.642 126.682 230.028 127.367 230.802C128.053 231.569 128.396 232.609 128.396 233.922C128.396 235.24 128.038 236.28 127.323 237.042C126.614 237.798 125.621 238.176 124.344 238.176C123.213 238.176 122.29 237.862 121.575 237.235C120.86 236.608 120.453 235.741 120.354 234.634H121.892C121.991 235.366 122.252 235.92 122.674 236.295C123.096 236.664 123.652 236.849 124.344 236.849C125.1 236.849 125.691 236.591 126.119 236.075C126.553 235.56 126.77 234.848 126.77 233.939C126.77 233.084 126.535 232.398 126.066 231.883C125.604 231.361 124.985 231.101 124.212 231.101C123.503 231.101 122.946 231.256 122.542 231.566L122.111 231.918L120.811 231.584Z" fill="white"/>
<path d="M71.9277 233.702H73.7031V235.029H71.9277V238H70.293V235.029H64.4658V234.071L70.1963 225.203H71.9277V233.702ZM66.3115 233.702H70.293V227.427L70.0996 227.778L66.3115 233.702Z" fill="white"/>
<path d="M73.3252 280.117L68.0254 292H66.3203L71.6025 280.539H64.6768V279.203H73.3252V280.117Z" fill="white"/>
<path d="M127.824 282.543C127.824 283.182 127.654 283.75 127.314 284.248C126.98 284.746 126.526 285.136 125.952 285.417C126.62 285.704 127.147 286.123 127.534 286.674C127.927 287.225 128.123 287.849 128.123 288.546C128.123 289.653 127.748 290.535 126.998 291.191C126.254 291.848 125.272 292.176 124.054 292.176C122.823 292.176 121.836 291.848 121.092 291.191C120.354 290.529 119.984 289.647 119.984 288.546C119.984 287.854 120.172 287.23 120.547 286.674C120.928 286.117 121.452 285.695 122.12 285.408C121.552 285.127 121.104 284.737 120.775 284.239C120.447 283.741 120.283 283.176 120.283 282.543C120.283 281.465 120.629 280.609 121.32 279.977C122.012 279.344 122.923 279.027 124.054 279.027C125.179 279.027 126.087 279.344 126.778 279.977C127.476 280.609 127.824 281.465 127.824 282.543ZM126.497 288.511C126.497 287.796 126.269 287.213 125.812 286.762C125.36 286.311 124.769 286.085 124.036 286.085C123.304 286.085 122.715 286.308 122.27 286.753C121.83 287.198 121.61 287.784 121.61 288.511C121.61 289.237 121.824 289.809 122.252 290.225C122.686 290.641 123.286 290.849 124.054 290.849C124.815 290.849 125.413 290.641 125.847 290.225C126.28 289.803 126.497 289.231 126.497 288.511ZM124.054 280.363C123.415 280.363 122.896 280.562 122.498 280.961C122.105 281.354 121.909 281.89 121.909 282.569C121.909 283.22 122.103 283.747 122.489 284.151C122.882 284.55 123.403 284.749 124.054 284.749C124.704 284.749 125.223 284.55 125.609 284.151C126.002 283.747 126.198 283.22 126.198 282.569C126.198 281.919 125.996 281.389 125.592 280.979C125.188 280.568 124.675 280.363 124.054 280.363Z" fill="white"/>
<path d="M181.295 286.375C180.955 286.779 180.548 287.104 180.073 287.351C179.604 287.597 179.089 287.72 178.526 287.72C177.788 287.72 177.144 287.538 176.593 287.175C176.048 286.812 175.626 286.302 175.327 285.646C175.028 284.983 174.879 284.254 174.879 283.457C174.879 282.602 175.04 281.831 175.362 281.146C175.69 280.46 176.153 279.936 176.751 279.572C177.349 279.209 178.046 279.027 178.843 279.027C180.108 279.027 181.104 279.502 181.831 280.451C182.563 281.395 182.93 282.684 182.93 284.318V284.793C182.93 287.283 182.438 289.103 181.453 290.251C180.469 291.394 178.983 291.979 176.997 292.009H176.681V290.638H177.023C178.365 290.614 179.396 290.266 180.117 289.592C180.838 288.912 181.23 287.84 181.295 286.375ZM178.79 286.375C179.335 286.375 179.836 286.208 180.293 285.874C180.756 285.54 181.093 285.127 181.304 284.635V283.984C181.304 282.918 181.072 282.051 180.609 281.383C180.146 280.715 179.561 280.381 178.852 280.381C178.137 280.381 177.562 280.656 177.129 281.207C176.695 281.752 176.479 282.473 176.479 283.369C176.479 284.242 176.687 284.963 177.103 285.531C177.524 286.094 178.087 286.375 178.79 286.375Z" fill="white"/>
<path d="M128.088 341.542C128.088 343.446 127.763 344.861 127.112 345.787C126.462 346.713 125.445 347.176 124.062 347.176C122.697 347.176 121.687 346.725 121.03 345.822C120.374 344.914 120.034 343.561 120.011 341.762V339.591C120.011 337.71 120.336 336.312 120.986 335.398C121.637 334.484 122.656 334.027 124.045 334.027C125.422 334.027 126.436 334.47 127.086 335.354C127.736 336.233 128.07 337.593 128.088 339.433V341.542ZM126.462 339.318C126.462 337.941 126.269 336.939 125.882 336.312C125.495 335.68 124.883 335.363 124.045 335.363C123.213 335.363 122.606 335.677 122.226 336.304C121.845 336.931 121.648 337.895 121.637 339.195V341.797C121.637 343.18 121.836 344.202 122.234 344.864C122.639 345.521 123.248 345.849 124.062 345.849C124.865 345.849 125.46 345.538 125.847 344.917C126.239 344.296 126.444 343.317 126.462 341.981V339.318Z" fill="white"/>
<path d="M93.9248 68.5225H89.583V76H87.1328V57.5156H93.252C95.334 57.5156 96.9336 57.9896 98.0508 58.9375C99.1764 59.8854 99.7393 61.265 99.7393 63.0762C99.7393 64.2272 99.4261 65.2301 98.7998 66.085C98.182 66.9398 97.3187 67.5788 96.21 68.002L100.552 75.8477V76H97.9365L93.9248 68.5225ZM89.583 66.5293H93.3281C94.5384 66.5293 95.499 66.2161 96.21 65.5898C96.9294 64.9635 97.2891 64.1257 97.2891 63.0762C97.2891 61.9336 96.9463 61.0576 96.2607 60.4482C95.5837 59.8389 94.6019 59.5299 93.3154 59.5215H89.583V66.5293ZM108.499 76.2539C106.637 76.2539 105.122 75.6445 103.954 74.4258C102.786 73.1986 102.202 71.5609 102.202 69.5127V69.0811C102.202 67.7184 102.46 66.5039 102.977 65.4375C103.501 64.3626 104.229 63.5247 105.16 62.9238C106.1 62.3145 107.115 62.0098 108.207 62.0098C109.993 62.0098 111.381 62.598 112.371 63.7744C113.361 64.9508 113.856 66.6351 113.856 68.8271V69.8047H104.551C104.585 71.1589 104.978 72.2549 105.731 73.0928C106.493 73.9222 107.458 74.3369 108.626 74.3369C109.455 74.3369 110.158 74.1676 110.733 73.8291C111.309 73.4906 111.812 73.042 112.244 72.4834L113.679 73.6006C112.528 75.3695 110.801 76.2539 108.499 76.2539ZM108.207 63.9395C107.259 63.9395 106.464 64.2865 105.82 64.9805C105.177 65.666 104.779 66.6309 104.627 67.875H111.508V67.6973C111.44 66.5039 111.118 65.5814 110.543 64.9297C109.967 64.2695 109.189 63.9395 108.207 63.9395ZM118.795 62.2637L118.858 63.7871C119.866 62.6022 121.224 62.0098 122.934 62.0098C124.855 62.0098 126.162 62.7461 126.856 64.2188C127.313 63.5586 127.906 63.0254 128.634 62.6191C129.37 62.2129 130.238 62.0098 131.236 62.0098C134.249 62.0098 135.781 63.6051 135.832 66.7959V76H133.483V66.9355C133.483 65.9538 133.259 65.2217 132.811 64.7393C132.362 64.2484 131.609 64.0029 130.551 64.0029C129.679 64.0029 128.955 64.2653 128.38 64.79C127.804 65.3063 127.47 66.0046 127.377 66.8848V76H125.016V66.999C125.016 65.0016 124.038 64.0029 122.083 64.0029C120.543 64.0029 119.489 64.6589 118.922 65.9707V76H116.573V62.2637H118.795ZM138.765 69.0049C138.765 67.6592 139.027 66.4489 139.552 65.374C140.085 64.2992 140.821 63.4697 141.761 62.8857C142.709 62.3018 143.788 62.0098 144.998 62.0098C146.868 62.0098 148.379 62.6572 149.53 63.9521C150.69 65.2471 151.27 66.9694 151.27 69.1191V69.2842C151.27 70.6214 151.011 71.8232 150.495 72.8896C149.987 73.9476 149.255 74.7728 148.299 75.3652C147.351 75.9577 146.259 76.2539 145.023 76.2539C143.161 76.2539 141.651 75.6064 140.491 74.3115C139.34 73.0166 138.765 71.3027 138.765 69.1699V69.0049ZM141.126 69.2842C141.126 70.8076 141.477 72.0306 142.18 72.9531C142.891 73.8757 143.839 74.3369 145.023 74.3369C146.217 74.3369 147.165 73.8714 147.867 72.9404C148.57 72.001 148.921 70.6891 148.921 69.0049C148.921 67.4984 148.561 66.2796 147.842 65.3486C147.131 64.4092 146.183 63.9395 144.998 63.9395C143.839 63.9395 142.903 64.4007 142.192 65.3232C141.481 66.2458 141.126 67.5661 141.126 69.2842ZM156.437 62.2637L156.513 63.9902C157.562 62.6699 158.933 62.0098 160.626 62.0098C163.529 62.0098 164.993 63.6475 165.019 66.9229V76H162.67V66.9102C162.661 65.9199 162.433 65.1878 161.984 64.7139C161.544 64.2399 160.854 64.0029 159.915 64.0029C159.153 64.0029 158.485 64.2061 157.909 64.6123C157.334 65.0186 156.885 65.5518 156.563 66.2119V76H154.215V62.2637H156.437Z" fill="#FF0B0B"/>
<circle cx="123" cy="385" r="10" fill="white"/>
</svg>
